<?xml version="1.0" encoding="utf-8"?>
<!-- Generator: Adobe Illustrator 19.1.0, SVG Export Plug-In . SVG Version: 6.00 Build 0)  -->
<svg version="1.1" id="Layer_1" xmlns="http://www.w3.org/2000/svg" xmlns:xlink="http://www.w3.org/1999/xlink" x="0px" y="0px"
	 viewBox="339.5 75.1 460.8 149.3" style="enable-background:new 339.5 75.1 460.8 149.3;" xml:space="preserve">
<style type="text/css">
	.st0{fill:#FFFFFF;}
	.st1{fill:#00B550;}
</style>
<g>
	<path class="st0" d="M384.8,117.6c-22.4-8-24.8-13.4-24.8-15.3c0-2.7,0.9-5.5,7.2-5.5h41.1V76.7h-41.1c-7.7,0-14.3,2.4-19.6,7.1
		c-5.4,4.8-8.1,10.7-8.1,17.7c0,6.6,2,12.4,6,17.3s12.8,9.4,26.9,13.7c16.3,4.9,18.8,9.4,18.8,11.6c0,2.9-1,6.2-8.7,6.2h-43v20.1h43
		c8.3,0,15.5-2.6,21.3-7.6c5.9-5.1,8.8-11.6,8.8-19.2C412.6,132.9,403.2,124.2,384.8,117.6z"/>
	<path class="st0" d="M589.5,86.3c-8-7.4-17.8-11.1-29.1-11.1c-11.3,0-21.1,3.7-29.1,11.1c-8.1,7.4-12.1,16.5-12.1,27v57.1h20.5
		v-57.1c0-5.8,1.8-10.2,5.4-13.4c3.7-3.3,8.8-4.9,15.3-4.9c6.4,0,11.6,1.7,15.3,4.9c3.7,3.2,5.4,7.6,5.4,13.4v57.1h20.5v-57.1
		C601.6,102.9,597.6,93.8,589.5,86.3z"/>
	<path class="st1" d="M752.3,75.3c-10.4,0-20.4,3.1-29,9c-8.5,5.8-14.1,14.2-19.1,22.3c-0.2,0.3-0.4,0.7-0.6,1
		c-1.7,2.7-3.3,5.6-4.9,8.3c-0.3,0.5-0.6,1-0.8,1.4c-12.4,21.2-22.1,34.9-39.8,34.9c-15.9,0-28.8-12.9-28.8-28.8
		s12.9-28.8,28.8-28.8c0,0,16.3-0.8,29.8,21l11.1-18c-0.7-1.2-1.5-2.3-2.4-3.4c-8.8-11.7-22.8-19.1-38.5-19.1
		c-26.6,0-48.2,21.6-48.2,48.2s21.6,48.2,48.2,48.2c9.8,0,17.9-2.6,24.9-6.8v13.4c0,13.6-11,24.6-24.6,24.6
		c-12,0-22.4-8.9-24.3-20.8l-0.3-1.9h-21.9l0.2,2.4c2.3,24,22.1,42,46.2,42c25.6,0,46.4-20.8,46.4-46.4v-35c0.7-1,1.4-2.1,2.1-3.1
		c1.8-2.8,3.5-5.6,5.2-8.3c1.2-2,2.3-3.9,3.4-5.8c1.8-3.1,3.5-6.1,5.3-8.9c4.2-6.8,8.1-12.7,13.5-16.5c5.3-3.6,11.7-5.6,18-5.6
		c15.9,0,28.8,12.9,28.8,28.8s-12.9,28.8-28.8,28.8c-8.4,0-16.2-3.7-21.5-9.6c0,0-4.4-4.8-8.3-11.1l-10.9,17.9
		c1.2,1.8,2.4,3.5,3.8,5.2c8.9,10.6,22.3,17.1,36.8,17.1c26.6,0,48.2-21.6,48.2-48.2C800.6,97,778.9,75.3,752.3,75.3z"/>
	<path class="st0" d="M492.4,130.2c-1.1,4.8-3.5,9.1-7.3,12.9c-5.5,5.5-11.9,8.1-19.6,8.1s-14.1-2.6-19.6-8.1
		c-5.4-5.4-8.1-11.8-8.1-19.6c0-7.7,2.6-14.1,8.1-19.5c5.4-5.5,11.9-8.1,19.6-8.1c2.8,0,5.3,0.4,7.7,1l-4.8,7.5l-19,29.6
		c3.4,5.3,9.4,8.8,16.1,8.8c0.9,0,1.7-0.1,2.5-0.2l15.9-24.7l10.2-15.9l7.3-11.3c-0.8-0.9-1.7-1.7-2.6-2.6s-1.9-1.7-2.9-2.6
		c-3.2-2.8-6.9-5.1-11-6.7c-5.7-2.3-12.2-3.4-19.5-3.4c-13.3,0-24.7,4.8-34.1,14.1c-9.4,9.4-14.2,20.9-14.2,34.1
		c0,13.3,4.8,24.8,14.2,34.2c9.4,9.4,20.9,14.1,34.1,14.1s24.7-4.8,34.1-14.1c7-6.9,11.4-15.1,13.2-24.3l1-5.2h-21L492.4,130.2z"/>
</g>
</svg>
